<?xml version="1.0" encoding="utf-8"?>
<!-- Generator: Adobe Illustrator 21.0.2, SVG Export Plug-In . SVG Version: 6.00 Build 0)  -->
<svg version="1.1" id="Layer_1" xmlns="http://www.w3.org/2000/svg" xmlns:xlink="http://www.w3.org/1999/xlink" x="0px" y="0px"
	 viewBox="0 0 1000 1000" style="enable-background:new 0 0 1000 1000;" xml:space="preserve">
<style type="text/css">
	.st0{fill:#231F20;}
	.st1{fill:url(#SVGID_1_);}
	.st2{fill:url(#SVGID_2_);}
	.st3{fill:url(#SVGID_3_);}
	.st4{fill:url(#SVGID_4_);}
	.st5{fill:#047DFF;}
	.st6{fill:#92C408;}
</style>
<g>
	<g>
		<polygon class="st0" points="326.8,542.4 326.8,542.4 326.7,542.4 		"/>
	</g>
	<g>
		<linearGradient id="SVGID_1_" gradientUnits="userSpaceOnUse" x1="247.982" y1="529.9493" x2="247.982" y2="529.9493">
			<stop  offset="0" style="stop-color:#06D0FF"/>
			<stop  offset="1" style="stop-color:#056277"/>
		</linearGradient>
		<path class="st1" d="M248,529.9"/>
	</g>
	<g>
		<linearGradient id="SVGID_2_" gradientUnits="userSpaceOnUse" x1="277.4299" y1="529.9615" x2="277.4299" y2="529.9615">
			<stop  offset="0" style="stop-color:#06D0FF"/>
			<stop  offset="1" style="stop-color:#056277"/>
		</linearGradient>
		<path class="st2" d="M277.4,530"/>
	</g>
	<g>
		<linearGradient id="SVGID_3_" gradientUnits="userSpaceOnUse" x1="277.2464" y1="529.937" x2="277.2464" y2="529.937">
			<stop  offset="0" style="stop-color:#06D0FF"/>
			<stop  offset="1" style="stop-color:#056277"/>
		</linearGradient>
		<path class="st3" d="M277.2,529.9"/>
	</g>
	<g>
		<linearGradient id="SVGID_4_" gradientUnits="userSpaceOnUse" x1="497.9258" y1="549.8969" x2="497.9478" y2="549.8969">
			<stop  offset="0" style="stop-color:#06D0FF"/>
			<stop  offset="1" style="stop-color:#056277"/>
		</linearGradient>
		<polygon class="st4" points="497.9,549.9 497.9,549.9 497.9,549.9 		"/>
	</g>
	<g>
		<g>
			<polygon class="st5" points="206.1,539 235.7,582.3 122.4,582.3 111,569.6 54,505.2 54,505.2 25.2,472.8 99.7,406.7 116.4,391.9 
				251.3,391.9 208,435.3 132.8,435.3 86.4,476.5 141.9,539 			"/>
		</g>
		<g>
			<polygon class="st6" points="421.5,472.8 390.9,503.5 390.8,503.5 355.3,539 355.2,538.9 355.2,538.9 305.1,538.9 305.1,658.6 
				305,658.6 286.6,631.6 267.2,603.2 266.5,602.3 261.8,595.3 261.8,495.6 337.4,495.6 360.2,472.8 322.6,435.3 224.8,435.3 
				268.2,391.9 340.6,391.9 			"/>
		</g>
		<g>
			<polygon class="st5" points="250,495.6 250,582.3 249.9,582.3 235.5,561.2 220.4,539.1 219.9,538.3 213,528.3 158.6,528.3 
				177.8,495.6 			"/>
		</g>
	</g>
	<g>
		<path d="M541.9,477.8c0,22.8-15.9,36.6-36.8,36.6c-23.4,0-40.3-17.3-40.3-38.7c0-21.6,17.2-38.9,39.1-38.9c14.3,0,26.3,7,32.6,17
			l-14.5,8.3c-3.1-4.9-9.8-8.7-18.2-8.7c-12.6,0-21.9,9.3-21.9,22.4c0,12.7,8.9,21.9,23.4,21.9c9.9,0,16.4-4.4,19.1-11.5h-19.9
			v-14.9h37.4V477.8z"/>
		<path d="M549.9,435.2h16v77.8h-16V435.2z"/>
		<path d="M573.8,486.3c0-15.9,12.6-28.1,28.2-28.1c15.7,0,28.2,12.3,28.2,28.1c0,15.9-12.6,28.1-28.2,28.1
			C586.4,514.4,573.8,502.2,573.8,486.3z M614.3,486.3c0-7.6-5.3-12.6-12.3-12.6c-6.9,0-12.3,5-12.3,12.6c0,7.6,5.3,12.6,12.3,12.6
			C609,498.9,614.3,493.9,614.3,486.3z"/>
		<path d="M695.6,486.3c0,15.9-11.5,28.1-25.5,28.1c-7.1,0-12.4-2.5-15.9-6.5v5h-16v-74.6h16v26.3c3.5-4,8.7-6.5,15.9-6.5
			C684.1,458.2,695.6,470.4,695.6,486.3z M679.6,486.3c0-8-5.3-13-12.7-13c-7.4,0-12.7,5-12.7,13c0,8,5.3,13,12.7,13
			C674.3,499.3,679.6,494.3,679.6,486.3z"/>
		<path d="M758.2,459.7v53.3h-16v-5c-3.5,4-8.7,6.5-15.9,6.5c-14,0-25.5-12.3-25.5-28.1c0-15.9,11.5-28.1,25.5-28.1
			c7.1,0,12.4,2.5,15.9,6.5v-5H758.2z M742.3,486.3c0-8-5.3-13-12.7-13c-7.4,0-12.7,5-12.7,13c0,8,5.3,13,12.7,13
			C736.9,499.3,742.3,494.3,742.3,486.3z"/>
		<path d="M768.9,435.2h16v77.8h-16V435.2z"/>
		<path d="M876,463.9c0,14.2-11.4,25.6-26.1,25.6h-11.2v23.4h-17v-74.6h28.2C864.6,438.4,876,449.8,876,463.9z M858.9,463.9
			c0-5.4-3.8-9.6-9.1-9.6h-11.2v19.2h11.2C855.1,473.5,858.9,469.4,858.9,463.9z"/>
		<path d="M909.9,500.1c4.4,0,8.1-1.7,10.2-4l12.8,7.4c-5.2,7.2-13.1,11-23.2,11c-18.2,0-29.5-12.3-29.5-28.1
			c0-15.9,11.5-28.1,28.3-28.1c15.6,0,27.1,12,27.1,28.1c0,2.2-0.2,4.4-0.6,6.4h-37.8C899.2,498.2,904.1,500.1,909.9,500.1z
			 M919.7,480.8c-1.7-6.2-6.5-8.4-11.3-8.4c-6.1,0-10.1,3-11.6,8.4H919.7z"/>
		<path d="M963.8,475v18.9c0,4.6,3.9,5,11,4.6v14.5c-20.9,2.1-27-4.2-27-19.1V475h-8.5v-15.3h8.5v-10.1l16-4.8v14.9h11V475H963.8z"
			/>
	</g>
	<g>
		<path d="M482.9,536.2v79.1h-18.1v-79.1H482.9z"/>
		<path d="M549.1,580.6v34.7h-17v-32.2c0-7-4.4-10.3-9.8-10.3c-6.2,0-10.5,3.6-10.5,11.6v30.9h-17v-56.5h17v5.3
			c3.1-4.2,8.7-6.9,16.2-6.9C539.3,557.2,549.1,565.3,549.1,580.6z"/>
		<path d="M617.6,536.2v79.1h-17V610c-3.7,4.3-9.3,6.9-16.8,6.9c-14.8,0-27-13-27-29.8c0-16.8,12.2-29.8,27-29.8
			c7.6,0,13.1,2.6,16.8,6.9v-27.9H617.6z M600.6,587c0-8.5-5.7-13.8-13.5-13.8c-7.8,0-13.5,5.3-13.5,13.8c0,8.5,5.7,13.8,13.5,13.8
			C595,600.8,600.6,595.5,600.6,587z"/>
		<path d="M626,587c0-16.8,13.3-29.8,30-29.8c16.6,0,30,13,30,29.8c0,16.8-13.3,29.8-30,29.8C639.4,616.9,626,603.9,626,587z
			 M669,587c0-8-5.7-13.3-13-13.3c-7.3,0-13,5.3-13,13.3c0,8,5.7,13.3,13,13.3C663.3,600.4,669,595.1,669,587z"/>
		<path d="M748.7,580.6v34.7h-17v-32.2c0-7-4.4-10.3-9.8-10.3c-6.2,0-10.5,3.6-10.5,11.6v30.9h-17v-56.5h17v5.3
			c3.1-4.2,8.7-6.9,16.2-6.9C739,557.2,748.7,565.3,748.7,580.6z"/>
		<path d="M787.9,601.7c4.6,0,8.6-1.8,10.9-4.3l13.6,7.8c-5.5,7.7-13.9,11.6-24.6,11.6c-19.3,0-31.3-13-31.3-29.8
			c0-16.8,12.2-29.8,30.1-29.8c16.5,0,28.7,12.8,28.7,29.8c0,2.4-0.2,4.6-0.7,6.8h-40.1C776.5,599.7,781.7,601.7,787.9,601.7z
			 M798.3,581.2c-1.8-6.6-6.9-8.9-12-8.9c-6.4,0-10.7,3.2-12.3,8.9H798.3z"/>
		<path d="M867.5,598.3c0,13-11.3,18.5-23.5,18.5c-11.3,0-19.9-4.3-24.3-13.5l14.7-8.4c1.5,4.3,4.6,6.7,9.6,6.7
			c4.1,0,6.1-1.2,6.1-3.5c0-6.2-27.8-2.9-27.8-22.5c0-12.3,10.4-18.5,22.2-18.5c9.2,0,17.3,4.1,22,12.1l-14.5,7.8
			c-1.6-2.9-3.8-5-7.6-5c-2.9,0-4.7,1.1-4.7,3.2C839.7,581.7,867.5,577.4,867.5,598.3z"/>
		<path d="M873.7,543.6c0-5.5,4.6-10.2,10.2-10.2c5.5,0,10.2,4.6,10.2,10.2s-4.6,10.2-10.2,10.2
			C878.4,553.8,873.7,549.2,873.7,543.6z M875.4,558.8h17v56.5h-17V558.8z"/>
		<path d="M961.7,558.8v56.5h-17V610c-3.7,4.3-9.3,6.9-16.8,6.9c-14.8,0-27-13-27-29.8c0-16.8,12.2-29.8,27-29.8
			c7.6,0,13.1,2.6,16.8,6.9v-5.3H961.7z M944.7,587c0-8.5-5.7-13.8-13.5-13.8c-7.8,0-13.5,5.3-13.5,13.8c0,8.5,5.7,13.8,13.5,13.8
			C939.1,600.8,944.7,595.5,944.7,587z"/>
	</g>
</g>
</svg>
